HIERARCHY
ROOT newVegas:Hips
{
	OFFSET 0.000000 96.479958 0.000000
	CHANNELS 6 Xposition Yposition Zposition Xrotation Yrotation Zrotation
	JOINT newVegas:Pelvis
	{
		OFFSET 0.000000 0.000000 0.000000
		CHANNELS 3 Xrotation Yrotation Zrotation
		JOINT newVegas:LeftUpLeg
		{
			OFFSET 18.735201 -5.666702 -4.541200
			CHANNELS 3 Xrotation Yrotation Zrotation
			JOINT newVegas:LeftLeg
			{
				OFFSET -0.021200 -31.938179 0.493100
				CHANNELS 3 Xrotation Yrotation Zrotation
				JOINT newVegas:LeftFoot
				{
					OFFSET 0.021200 -31.938179 -4.336299
					CHANNELS 3 Xrotation Yrotation Zrotation
					JOINT newVegas:LeftToeBase
					{
						OFFSET 0.943001 -26.722000 15.023500
						CHANNELS 3 Xrotation Yrotation Zrotation
						End Site
						{
							OFFSET 0.000000 30.670183 0.000000
						}
					}
				}
				JOINT newVegas:Left_PantLeg
				{
					OFFSET 0.663870 -9.044666 -1.108900
					CHANNELS 3 Xrotation Yrotation Zrotation
					End Site
					{
						OFFSET 1.415995 20.635357 0.000000
					}
				}
			}
		}
		JOINT newVegas:RightUpLeg
		{
			OFFSET -18.735201 -5.666702 -4.541200
			CHANNELS 3 Xrotation Yrotation Zrotation
			JOINT newVegas:RightLeg
			{
				OFFSET 0.018946 -31.938133 0.493100
				CHANNELS 3 Xrotation Yrotation Zrotation
				JOINT newVegas:RightFoot
				{
					OFFSET -0.018946 -31.938126 -4.336299
					CHANNELS 3 Xrotation Yrotation Zrotation
					JOINT newVegas:RightToeBase
					{
						OFFSET -0.943001 -26.722004 15.023500
						CHANNELS 3 Xrotation Yrotation Zrotation
						End Site
						{
							OFFSET 0.000000 30.670187 0.000000
						}
					}
				}
				JOINT newVegas:Right_PantLeg
				{
					OFFSET -0.661674 -9.044716 -1.108900
					CHANNELS 3 Xrotation Yrotation Zrotation
					End Site
					{
						OFFSET -1.415958 20.635269 0.000000
					}
				}
			}
		}
	}
	JOINT newVegas:Spine
	{
		OFFSET 0.000000 10.199997 -0.299500
		CHANNELS 3 Xrotation Yrotation Zrotation
		JOINT newVegas:Spine1
		{
			OFFSET 0.000000 11.900002 -1.516600
			CHANNELS 3 Xrotation Yrotation Zrotation
			JOINT newVegas:Spine2
			{
				OFFSET 0.000000 13.600006 -2.842500
				CHANNELS 3 Xrotation Yrotation Zrotation
				JOINT newVegas:Neck
				{
					OFFSET 0.000000 9.624100 -2.890100
					CHANNELS 3 Xrotation Yrotation Zrotation
					JOINT newVegas:Head
					{
						OFFSET 0.000000 14.068802 -1.351900
						CHANNELS 3 Xrotation Yrotation Zrotation
						JOINT newVegas:Hair_Back
						{
							OFFSET 0.000000 3.231903 -17.524799
							CHANNELS 3 Xrotation Yrotation Zrotation
							End Site
							{
								OFFSET 0.000000 19.849884 0.000000
							}
						}
						JOINT newVegas:Hair_Front
						{
							OFFSET 0.000000 31.260406 4.573800
							CHANNELS 3 Xrotation Yrotation Zrotation
							JOINT newVegas:Hair_Front1
							{
								OFFSET 0.000000 2.284103 11.993300
								CHANNELS 3 Xrotation Yrotation Zrotation
								JOINT newVegas:Hair_Front2
								{
									OFFSET 0.000000 2.284103 11.993300
									CHANNELS 3 Xrotation Yrotation Zrotation
									End Site
									{
										OFFSET 0.000000 12.208862 0.000000
									}
								}
							}
						}
						JOINT newVegas:Jowel
						{
							OFFSET 0.000000 -7.458206 6.864100
							CHANNELS 3 Xrotation Yrotation Zrotation
							End Site
							{
								OFFSET 0.000000 19.849884 0.000000
							}
						}
					}
				}
				JOINT newVegas:LeftShoulder
				{
					OFFSET 15.263000 10.923401 -0.547700
					CHANNELS 3 Xrotation Yrotation Zrotation
					JOINT newVegas:LeftArm
					{
						OFFSET 25.438599 -2.830597 -13.032500
						CHANNELS 3 Xrotation Yrotation Zrotation
						JOINT newVegas:LeftForeArm
						{
							OFFSET 29.960503 0.000000 0.000000
							CHANNELS 3 Xrotation Yrotation Zrotation
							JOINT newVegas:LeftHand
							{
								OFFSET 27.849251 0.000000 0.000000
								CHANNELS 3 Xrotation Yrotation Zrotation
								JOINT newVegas:LeftHandThumb1
								{
									OFFSET 4.487587 -3.305161 6.305391
									CHANNELS 3 Xrotation Yrotation Zrotation
									JOINT newVegas:LeftHandThumb2
									{
										OFFSET 5.480453 -3.164139 3.164143
										CHANNELS 3 Xrotation Yrotation Zrotation
										JOINT newVegas:LeftHandThumb3
										{
											OFFSET 5.159721 -2.978973 2.978967
											CHANNELS 3 Xrotation Yrotation Zrotation
											End Site
											{
												OFFSET 2.494507 5.926697 1.738678
											}
										}
									}
								}
								JOINT newVegas:LeftHandIndex1
								{
									OFFSET 18.578728 -0.527832 5.208049
									CHANNELS 3 Xrotation Yrotation Zrotation
									JOINT newVegas:LeftHandIndex2
									{
										OFFSET 3.192009 0.000000 0.000000
										CHANNELS 3 Xrotation Yrotation Zrotation
										JOINT newVegas:LeftHandIndex3
										{
											OFFSET 3.835129 0.000000 0.000000
											CHANNELS 3 Xrotation Yrotation Zrotation
											End Site
											{
												OFFSET -0.034599 3.816971 0.371180
											}
										}
									}
								}
								JOINT newVegas:LeftHandMiddle1
								{
									OFFSET 18.476105 0.000000 0.000000
									CHANNELS 3 Xrotation Yrotation Zrotation
									JOINT newVegas:LeftHandMiddle2
									{
										OFFSET 3.324875 0.000000 0.000000
										CHANNELS 3 Xrotation Yrotation Zrotation
										JOINT newVegas:LeftHandMiddle3
										{
											OFFSET 4.596550 0.000000 0.000000
											CHANNELS 3 Xrotation Yrotation Zrotation
											End Site
											{
												OFFSET 0.057701 4.578827 0.399218
											}
										}
									}
								}
								JOINT newVegas:LeftHandRing1
								{
									OFFSET 17.732719 0.121887 -4.201567
									CHANNELS 3 Xrotation Yrotation Zrotation
									JOINT newVegas:LeftHandRing2
									{
										OFFSET 2.733170 0.000000 0.000000
										CHANNELS 3 Xrotation Yrotation Zrotation
										JOINT newVegas:LeftHandRing3
										{
											OFFSET 3.178268 0.000000 0.000000
											CHANNELS 3 Xrotation Yrotation Zrotation
											End Site
											{
												OFFSET 0.119102 3.170624 0.185394
											}
										}
									}
								}
								JOINT newVegas:LeftHandPinky1
								{
									OFFSET 15.989624 -0.606689 -7.535461
									CHANNELS 3 Xrotation Yrotation Zrotation
									JOINT newVegas:LeftHandPinky2
									{
										OFFSET 2.538986 0.000000 0.000000
										CHANNELS 3 Xrotation Yrotation Zrotation
										JOINT newVegas:LeftHandPinky3
										{
											OFFSET 2.593102 0.000000 0.000000
											CHANNELS 3 Xrotation Yrotation Zrotation
											End Site
											{
												OFFSET -0.150902 2.584198 0.152708
											}
										}
									}
								}
							}
							JOINT newVegas:Left_Sleeve
							{
								OFFSET 0.267448 -0.649796 0.577675
								CHANNELS 3 Xrotation Yrotation Zrotation
								End Site
								{
									OFFSET 0.000000 15.991241 0.000000
								}
							}
							JOINT newVegas:Left_CapeC
							{
								OFFSET 15.715958 -8.608795 -6.935905
								CHANNELS 3 Xrotation Yrotation Zrotation
								JOINT newVegas:Left_CapeC1
								{
									OFFSET 0.000000 -8.688499 0.000000
									CHANNELS 3 Xrotation Yrotation Zrotation
									End Site
									{
										OFFSET 0.000000 8.688499 0.000000
									}
								}
							}
						}
						JOINT newVegas:Left_CapeB
						{
							OFFSET 26.118385 -8.608795 -7.079235
							CHANNELS 3 Xrotation Yrotation Zrotation
							JOINT newVegas:Left_CapeB1
							{
								OFFSET 0.000000 -8.688499 0.000000
								CHANNELS 3 Xrotation Yrotation Zrotation
								End Site
								{
									OFFSET 0.000000 8.688499 0.000000
								}
							}
						}
						JOINT newVegas:Left_CapeA
						{
							OFFSET 5.115639 -8.608795 -10.395809
							CHANNELS 3 Xrotation Yrotation Zrotation
							JOINT newVegas:Left_CapeA1
							{
								OFFSET 0.000000 -8.688499 0.000000
								CHANNELS 3 Xrotation Yrotation Zrotation
								End Site
								{
									OFFSET 0.000000 8.688499 0.000000
								}
							}
						}
					}
				}
				JOINT newVegas:RightShoulder
				{
					OFFSET -15.263000 10.923401 -0.547700
					CHANNELS 3 Xrotation Yrotation Zrotation
					JOINT newVegas:RightArm
					{
						OFFSET -25.438599 -2.830597 -13.032500
						CHANNELS 3 Xrotation Yrotation Zrotation
						JOINT newVegas:RightForeArm
						{
							OFFSET -29.960503 0.000000 0.000000
							CHANNELS 3 Xrotation Yrotation Zrotation
							JOINT newVegas:RightHand
							{
								OFFSET -27.849251 0.000000 0.000000
								CHANNELS 3 Xrotation Yrotation Zrotation
								JOINT newVegas:RightHandThumb1
								{
									OFFSET -4.487587 -3.305161 6.305391
									CHANNELS 3 Xrotation Yrotation Zrotation
									JOINT newVegas:RightHandThumb2
									{
										OFFSET -5.480453 -3.164139 3.164143
										CHANNELS 3 Xrotation Yrotation Zrotation
										JOINT newVegas:RightHandThumb3
										{
											OFFSET -5.159721 -2.978973 2.978967
											CHANNELS 3 Xrotation Yrotation Zrotation
											End Site
											{
												OFFSET -2.494507 5.926697 1.738678
											}
										}
									}
								}
								JOINT newVegas:RightHandIndex1
								{
									OFFSET -18.578728 -0.527832 5.208049
									CHANNELS 3 Xrotation Yrotation Zrotation
									JOINT newVegas:RightHandIndex2
									{
										OFFSET -3.192009 0.000000 0.000000
										CHANNELS 3 Xrotation Yrotation Zrotation
										JOINT newVegas:RightHandIndex3
										{
											OFFSET -3.835129 0.000000 0.000000
											CHANNELS 3 Xrotation Yrotation Zrotation
											End Site
											{
												OFFSET 0.034599 3.816971 0.371180
											}
										}
									}
								}
								JOINT newVegas:RightHandMiddle1
								{
									OFFSET -18.476105 0.000000 0.000000
									CHANNELS 3 Xrotation Yrotation Zrotation
									JOINT newVegas:RightHandMiddle2
									{
										OFFSET -3.324875 0.000000 0.000000
										CHANNELS 3 Xrotation Yrotation Zrotation
										JOINT newVegas:RightHandMiddle3
										{
											OFFSET -4.596550 0.000000 0.000000
											CHANNELS 3 Xrotation Yrotation Zrotation
											End Site
											{
												OFFSET -0.057701 4.578827 0.399218
											}
										}
									}
								}
								JOINT newVegas:RightHandRing1
								{
									OFFSET -17.732719 0.121887 -4.201567
									CHANNELS 3 Xrotation Yrotation Zrotation
									JOINT newVegas:RightHandRing2
									{
										OFFSET -2.733170 0.000000 0.000000
										CHANNELS 3 Xrotation Yrotation Zrotation
										JOINT newVegas:RightHandRing3
										{
											OFFSET -3.178268 0.000000 0.000000
											CHANNELS 3 Xrotation Yrotation Zrotation
											End Site
											{
												OFFSET -0.119102 3.170624 0.185394
											}
										}
									}
								}
								JOINT newVegas:RightHandPinky1
								{
									OFFSET -15.989624 -0.606689 -7.535461
									CHANNELS 3 Xrotation Yrotation Zrotation
									JOINT newVegas:RightHandPinky2
									{
										OFFSET -2.538986 0.000000 0.000000
										CHANNELS 3 Xrotation Yrotation Zrotation
										JOINT newVegas:RightHandPinky3
										{
											OFFSET -2.593102 0.000000 0.000000
											CHANNELS 3 Xrotation Yrotation Zrotation
											End Site
											{
												OFFSET 0.150902 2.584198 0.152708
											}
										}
									}
								}
							}
							JOINT newVegas:Right_CapeC
							{
								OFFSET -15.715958 -8.608795 -6.935905
								CHANNELS 3 Xrotation Yrotation Zrotation
								JOINT newVegas:Right_CapeC1
								{
									OFFSET 0.000000 -8.688499 0.000000
									CHANNELS 3 Xrotation Yrotation Zrotation
									End Site
									{
										OFFSET 0.000000 8.688499 0.000000
									}
								}
							}
							JOINT newVegas:Right_Sleeve
							{
								OFFSET -0.267448 -0.649994 0.577675
								CHANNELS 3 Xrotation Yrotation Zrotation
								End Site
								{
									OFFSET 0.000000 15.991302 0.000000
								}
							}
						}
						JOINT newVegas:Right_CapeA
						{
							OFFSET -5.115540 -8.608795 -10.395824
							CHANNELS 3 Xrotation Yrotation Zrotation
							JOINT newVegas:Right_CapeA1
							{
								OFFSET 0.000000 -8.688499 0.000000
								CHANNELS 3 Xrotation Yrotation Zrotation
								End Site
								{
									OFFSET 0.000000 8.688499 0.000000
								}
							}
						}
						JOINT newVegas:Right_CapeB
						{
							OFFSET -26.118187 -8.608795 -7.079266
							CHANNELS 3 Xrotation Yrotation Zrotation
							JOINT newVegas:Right_CapeB1
							{
								OFFSET 0.000000 -8.688499 0.000000
								CHANNELS 3 Xrotation Yrotation Zrotation
								End Site
								{
									OFFSET 0.000000 8.688499 0.000000
								}
							}
						}
					}
				}
				JOINT newVegas:Left_Collar
				{
					OFFSET 18.625099 8.655502 8.828100
					CHANNELS 3 Xrotation Yrotation Zrotation
					JOINT newVegas:Left_Collar1
					{
						OFFSET 14.783401 10.540405 -1.259500
						CHANNELS 3 Xrotation Yrotation Zrotation
						End Site
						{
							OFFSET 0.000000 18.199875 0.000000
						}
					}
				}
				JOINT newVegas:Collar_Back
				{
					OFFSET 0.000000 15.630707 -20.132601
					CHANNELS 3 Xrotation Yrotation Zrotation
					End Site
					{
						OFFSET 0.000000 22.523010 0.000000
					}
				}
				JOINT newVegas:Left_Peck
				{
					OFFSET 17.239599 -5.132599 25.482599
					CHANNELS 3 Xrotation Yrotation Zrotation
					End Site
					{
						OFFSET 0.000000 22.523010 0.000000
					}
				}
				JOINT newVegas:Right_Peck
				{
					OFFSET -17.239599 -5.132202 25.482599
					CHANNELS 3 Xrotation Yrotation Zrotation
					End Site
					{
						OFFSET 0.000000 22.523010 0.000000
					}
				}
				JOINT newVegas:Right_Collar
				{
					OFFSET -18.625099 8.655792 8.828100
					CHANNELS 3 Xrotation Yrotation Zrotation
					JOINT newVegas:Right_Collar1
					{
						OFFSET -14.783401 10.539993 -1.259500
						CHANNELS 3 Xrotation Yrotation Zrotation
						End Site
						{
							OFFSET 0.000000 18.199631 0.000000
						}
					}
				}
			}
		}
		JOINT newVegas:Belly
		{
			OFFSET 0.000000 -6.540398 9.014299
			CHANNELS 3 Xrotation Yrotation Zrotation
			End Site
			{
				OFFSET 0.000000 11.566666 0.000000
			}
		}
	}
	JOINT newVegas:ElvisFacialAnim_Joint
	{
		OFFSET 1.000000 -95.330101 -8.825800
		CHANNELS 3 Xrotation Yrotation Zrotation
		End Site
		{
			OFFSET 0.000000 35.315800 0.000000
		}
	}
}
MOTION
Frames: 4
Frame Time: 0.033333
1.823297 92.943939 7.513493 -4.916249 4.399757 5.121895 0.000000 -0.000000 0.000000 -15.536845 12.040354 3.471142 18.361738 -0.800500 1.652709 2.615146 0.116621 -5.383118 0.000000 -0.000000 -0.000000 0.000000 0.000001 -0.000000 9.997120 -18.017298 -6.218490 21.100700 -6.647679 -3.124182 -22.192210 -17.747827 9.328786 -0.000000 0.000000 0.000000 -0.000002 0.000000 -0.000000 6.955861 2.825052 -2.979714 1.250651 0.780952 -1.404430 1.143558 0.794791 -1.406137 0.503726 -0.055903 -0.447114 0.503733 -0.055896 -0.447114 0.000000 -0.000001 -0.000000 0.503796 -0.055900 -0.447115 0.503653 -0.055904 -0.447113 0.000001 0.000000 -0.000000 0.000000 -0.000001 -0.000000 0.196646 -15.765941 -20.276016 -3.408314 -36.529877 -40.919093 0.000008 -29.102736 0.000014 -37.555949 12.991335 3.735784 -15.245831 -6.030303 -1.456659 5.467550 8.405743 -0.373307 -0.000000 0.000001 -0.000001 -1.276486 2.664638 -38.110024 0.842512 3.028662 -31.084929 -0.000005 -0.000001 -0.000002 1.326061 6.077922 -46.892992 1.524743 3.943023 -42.269507 -0.000001 -0.000000 -0.000000 3.162120 7.514759 -61.190381 1.309493 3.692902 -39.037553 0.000001 -0.000001 0.000000 4.547172 8.095547 -68.582196 1.060902 3.363878 -35.000177 -0.000001 -0.000002 -0.000002 -0.000000 -0.000001 -0.000000 -0.000000 -0.000001 -0.000000 -0.000001 -0.000000 0.000000 -0.000002 0.000003 -0.000001 -0.000002 0.000002 0.000000 -0.000002 0.000003 -0.000001 -0.000003 0.000003 -0.000002 2.509675 17.531234 3.249528 35.694295 3.302310 55.038327 0.000006 75.372811 0.000017 -48.200768 7.600064 -15.270181 3.597024 -10.097362 11.407267 -2.459523 -15.247451 -21.642636 0.000001 0.000000 -0.000002 -0.517872 -1.520130 19.840031 1.461223 -3.389256 46.635060 -0.000001 0.000001 -0.000002 1.077772 -5.302745 49.260868 3.092280 -4.386904 70.345607 0.000001 0.000000 -0.000002 4.386513 -7.517092 58.870978 1.628787 -3.539735 49.407334 -0.000002 0.000001 -0.000002 5.329394 -7.695964 65.051808 1.330294 -3.260822 44.378095 -0.000000 0.000003 -0.000002 -0.000001 0.000001 -0.000001 0.000000 -0.000001 0.000003 0.000001 0.000002 -0.000000 -0.000001 0.000001 -0.000001 -0.000001 0.000002 -0.000000 -0.000001 0.000001 -0.000001 -0.000001 0.000002 -0.000000 0.000000 -0.000000 0.000000 0.000000 -0.000000 0.000000 0.000000 -0.000000 0.000000 0.000000 -0.000000 0.000000 0.000000 -0.000000 0.000000 0.000000 -0.000000 0.000000 0.000000 -0.000000 0.000000 0.000000 0.000000 0.000000 0.000000 -0.000000 0.000000 
1.874524 93.027748 7.688263 -5.005818 3.542324 5.007231 -0.000000 -0.000001 -0.000001 -14.957477 12.025195 3.577072 18.399249 0.003437 1.662483 2.151841 0.149996 -5.519896 -0.000000 -0.000002 0.000000 0.000000 -0.000001 0.000000 10.524436 -17.887113 -6.341132 20.138003 -6.457888 -3.117609 -21.869070 -17.224677 9.382868 0.000000 0.000002 0.000000 -0.000000 0.000001 -0.000001 6.834876 2.824083 -2.974802 1.229956 0.800903 -1.387808 1.125399 0.815154 -1.387296 0.623293 -0.050703 -0.254289 0.623295 -0.050701 -0.254290 -0.000000 0.000001 -0.000000 0.623290 -0.050701 -0.254289 0.623294 -0.050706 -0.254288 0.000000 0.000000 -0.000000 -0.000000 0.000001 -0.000000 0.014783 -16.533463 -20.515074 -4.564808 -34.131234 -40.142050 0.000012 -29.019664 0.000012 -44.103785 12.401113 4.117764 -15.156058 -6.539519 -2.329388 4.724821 6.674971 -0.758383 0.000001 -0.000005 -0.000005 -1.347901 2.186686 -35.074480 0.658356 2.700121 -27.400673 -0.000000 0.000001 -0.000001 1.181541 5.897613 -44.850902 1.411672 3.815222 -40.598238 -0.000006 0.000001 0.000000 3.053664 7.455790 -59.979600 1.291129 3.670210 -38.751731 0.000002 -0.000001 -0.000000 4.647767 8.120978 -69.417364 1.019848 3.304542 -34.293960 0.000004 -0.000003 0.000001 -0.000001 0.000001 -0.000000 -0.000001 0.000001 -0.000000 -0.000002 0.000001 -0.000000 -0.000001 -0.000003 0.000003 -0.000001 -0.000003 0.000000 -0.000001 -0.000003 0.000003 -0.000002 -0.000002 0.000001 2.472659 18.016666 3.479157 31.743017 7.060670 49.866016 0.000016 74.569287 -0.000040 -45.949814 7.159477 -13.194102 4.262743 -9.636303 11.746605 -2.268752 -15.136517 -22.061625 0.000001 -0.000003 -0.000001 -0.540993 -1.423518 19.601472 1.475609 -3.402785 46.878143 0.000003 0.000000 -0.000001 1.068276 -5.297844 49.439494 3.171246 -4.414254 71.374835 0.000000 -0.000001 0.000000 4.468648 -7.557916 59.037396 1.667056 -3.572107 50.024319 -0.000002 0.000001 -0.000001 5.428783 -7.725354 65.348286 1.355710 -3.286561 44.823246 -0.000002 0.000003 -0.000003 -0.000002 0.000000 0.000005 0.000002 -0.000001 0.000004 -0.000001 0.000001 0.000003 -0.000003 0.000001 -0.000000 -0.000003 0.000002 -0.000000 -0.000003 0.000001 -0.000000 -0.000003 0.000002 -0.000000 0.000000 -0.000000 0.000000 0.000000 -0.000000 0.000000 0.000000 -0.000000 0.000000 0.000000 -0.000000 0.000000 0.000000 -0.000000 0.000000 0.000000 -0.000000 0.000000 0.000000 -0.000000 0.000000 0.000000 0.000000 0.000000 -0.000000 -0.000001 -0.000001 
1.894132 93.106461 7.814405 -5.084100 2.702596 4.880649 -0.000000 -0.000000 0.000000 -14.425710 11.997088 3.703635 18.391579 0.798494 1.670511 1.770137 0.181943 -5.674493 -0.000000 0.000002 -0.000000 -0.000000 -0.000000 -0.000000 11.027579 -17.755744 -6.416334 19.159890 -6.377726 -3.114434 -21.557798 -16.620565 9.435308 0.000000 -0.000000 -0.000000 -0.000001 0.000000 -0.000002 6.729286 2.822821 -2.998760 1.220707 0.829461 -1.373880 1.118080 0.843856 -1.372271 0.739691 -0.054376 -0.063096 0.739697 -0.054378 -0.063097 0.000000 -0.000000 -0.000000 0.739761 -0.054376 -0.063096 0.739687 -0.054373 -0.063097 -0.000000 0.000000 -0.000000 0.000000 -0.000000 0.000000 -0.164365 -17.279055 -20.702561 -5.838964 -31.463044 -39.461817 0.000007 -29.119620 0.000003 -50.998714 11.681098 4.391480 -15.059987 -7.049941 -3.229969 3.993233 5.001076 -1.151430 -0.000000 -0.000000 -0.000005 -1.377452 1.711958 -31.982521 0.500836 2.371981 -23.841945 0.000001 -0.000000 -0.000003 1.048700 5.717880 -42.865219 1.310917 3.694654 -39.059659 0.000004 -0.000002 -0.000001 2.954913 7.399467 -58.864578 1.280106 3.656428 -38.578828 -0.000001 -0.000001 -0.000000 4.762006 8.147350 -70.384177 0.988702 3.258492 -33.749983 -0.000002 -0.000005 0.000001 0.000002 0.000000 0.000001 0.000002 0.000000 0.000001 0.000001 0.000001 0.000001 0.000002 0.000001 -0.000003 0.000002 -0.000000 -0.000003 0.000002 0.000001 -0.000003 0.000001 0.000002 -0.000004 2.367458 18.505462 4.085768 27.731565 12.247110 45.007911 0.000005 73.723785 -0.000026 -44.868353 6.904804 -11.317817 4.921268 -9.165374 12.080093 -2.076392 -15.024601 -22.479285 0.000002 -0.000003 -0.000003 -0.563403 -1.326749 19.362960 1.490078 -3.416233 47.121198 -0.000001 0.000000 0.000000 1.058698 -5.293081 49.618145 3.250715 -4.440146 72.404137 -0.000000 0.000000 -0.000001 4.550992 -7.598287 59.203950 1.705664 -3.604066 50.641307 -0.000002 0.000002 -0.000001 5.528397 -7.753792 65.644873 1.381330 -3.312102 45.268445 0.000004 -0.000002 -0.000000 -0.000001 0.000001 0.000002 0.000001 0.000001 0.000003 -0.000001 0.000001 0.000003 0.000001 0.000001 0.000002 0.000001 0.000002 0.000002 0.000001 0.000001 0.000002 0.000001 0.000002 -0.000000 -0.000000 -0.000000 -0.000000 -0.000000 -0.000000 -0.000000 -0.000000 -0.000000 -0.000000 -0.000000 -0.000000 -0.000000 -0.000000 -0.000000 -0.000000 -0.000000 -0.000000 -0.000000 -0.000000 -0.000000 -0.000000 -0.000000 0.000000 0.000000 -0.000000 -0.000000 0.000000 
1.885669 93.179756 7.895460 -5.154122 1.889937 4.745903 0.000000 -0.000000 -0.000000 -13.943537 11.971450 3.850515 18.351079 1.560694 1.676709 1.461643 0.212973 -5.839598 0.000000 0.000002 -0.000000 0.000000 0.000001 0.000001 11.508178 -17.623976 -6.448459 18.177970 -6.394701 -3.111750 -21.260516 -15.953415 9.484529 0.000000 -0.000002 0.000000 0.000000 0.000000 0.000000 6.637825 2.821362 -3.046598 1.219170 0.868435 -1.362512 1.117944 0.882786 -1.360526 0.850171 -0.064350 0.122501 0.850169 -0.064349 0.122502 0.000000 -0.000000 -0.000000 0.850172 -0.064348 0.122501 0.850312 -0.064353 0.122502 0.000001 0.000000 -0.000000 0.000000 -0.000000 -0.000000 -0.334755 -17.987725 -20.829703 -7.159092 -28.586968 -38.855693 -0.000000 -29.440912 -0.000012 -58.123878 10.900826 4.526445 -14.958020 -7.555471 -4.106009 3.290649 3.425130 -1.538557 0.000003 0.000001 -0.000003 -1.369736 1.266121 -29.009364 0.373887 2.061195 -20.560924 -0.000002 0.000002 -0.000002 0.932054 5.547409 -41.029769 1.224968 3.586381 -37.706268 0.000003 -0.000001 -0.000000 2.869005 7.348383 -57.884378 1.275508 3.650691 -38.506933 -0.000002 -0.000001 0.000002 4.883952 8.172778 -71.421307 0.966421 3.224976 -33.356335 0.000001 0.000000 -0.000001 -0.000001 0.000001 0.000000 -0.000001 0.000001 0.000000 -0.000002 0.000001 0.000000 0.000001 -0.000001 0.000003 0.000001 -0.000002 0.000000 0.000001 -0.000001 0.000003 -0.000000 -0.000000 0.000001 2.200788 18.710837 5.008360 24.464826 17.127753 41.645979 -0.000032 72.865346 0.000036 -43.258375 6.307393 -9.224579 5.572620 -8.684676 12.407612 -1.882062 -14.912726 -22.896001 0.000001 -0.000001 -0.000002 -0.585053 -1.229843 19.124453 1.504576 -3.429633 47.364292 0.000001 0.000002 0.000001 1.049097 -5.288367 49.796771 3.330624 -4.464630 73.433495 0.000002 0.000002 -0.000001 4.633530 -7.638236 59.370627 1.744651 -3.635597 51.258370 -0.000001 0.000003 -0.000003 5.628209 -7.781330 65.941617 1.407159 -3.337450 45.713677 -0.000001 0.000002 -0.000002 -0.000002 0.000000 -0.000000 -0.000002 -0.000000 -0.000001 -0.000002 -0.000000 -0.000001 0.000002 0.000000 0.000001 0.000002 0.000001 -0.000000 0.000002 0.000000 0.000001 0.000002 0.000001 0.000000 0.000000 -0.000000 -0.000000 0.000000 -0.000000 -0.000000 0.000000 -0.000000 -0.000000 0.000000 -0.000000 -0.000000 0.000000 -0.000000 -0.000000 0.000000 -0.000000 -0.000000 0.000000 -0.000000 -0.000000 -0.000000 -0.000001 0.000000 0.000000 -0.000000 -0.000000 
